<svg id="Coronavirus" xmlns="http://www.w3.org/2000/svg" viewBox="0 0 632.94 632.94"><defs><style>.cls-1{fill:#009444;}.cls-2{fill:#005926;}.cls-3{fill:#00e562;}</style></defs><rect class="cls-1" x="186.16" y="74.46" width="37.23" height="37.23"/><rect class="cls-1" x="297.86" y="74.46" width="37.23" height="37.23"/><rect class="cls-1" x="409.55" y="74.46" width="37.23" height="37.23"/><rect class="cls-1" x="37.23" y="111.7" width="37.23" height="37.23"/><rect class="cls-1" x="223.39" y="111.7" width="37.23" height="37.23"/><rect class="cls-1" x="260.62" y="111.7" width="37.23" height="37.23"/><rect class="cls-1" x="297.86" y="111.7" width="37.23" height="37.23"/><rect class="cls-1" x="335.09" y="111.7" width="37.23" height="37.23"/><rect class="cls-2" x="372.32" y="111.7" width="37.23" height="37.23"/><rect class="cls-1" x="558.48" y="111.7" width="37.23" height="37.23"/><rect class="cls-1" x="37.23" y="148.93" width="37.23" height="37.23"/><rect class="cls-1" x="186.16" y="148.93" width="37.23" height="37.23"/><rect class="cls-1" x="223.39" y="148.93" width="37.23" height="37.23"/><rect class="cls-1" x="260.62" y="148.93" width="37.23" height="37.23"/><rect class="cls-3" x="297.86" y="148.93" width="37.23" height="37.23"/><rect class="cls-1" x="335.09" y="148.93" width="37.23" height="37.23"/><rect class="cls-2" x="372.32" y="148.93" width="37.23" height="37.23"/><rect class="cls-2" x="409.55" y="148.93" width="37.23" height="37.23"/><rect class="cls-1" x="558.48" y="148.93" width="37.23" height="37.23"/><rect class="cls-1" x="595.71" y="148.93" width="37.23" height="37.23"/><rect class="cls-1" y="148.93" width="37.23" height="37.23"/><rect class="cls-1" x="74.46" y="186.16" width="37.23" height="37.23"/><rect class="cls-1" x="148.93" y="186.16" width="37.23" height="37.23"/><rect class="cls-1" x="186.16" y="186.16" width="37.23" height="37.23"/><rect class="cls-1" x="223.39" y="186.16" width="37.23" height="37.23"/><rect class="cls-1" x="260.62" y="186.16" width="37.23" height="37.23"/><rect class="cls-1" x="297.86" y="186.16" width="37.23" height="37.23"/><rect class="cls-1" x="335.09" y="186.16" width="37.23" height="37.23"/><rect class="cls-1" x="372.32" y="186.16" width="37.23" height="37.23"/><rect class="cls-2" x="409.55" y="186.16" width="37.23" height="37.23"/><rect class="cls-2" x="446.78" y="186.16" width="37.23" height="37.23"/><rect class="cls-1" x="521.25" y="186.16" width="37.23" height="37.23"/><rect class="cls-1" x="111.7" y="223.39" width="37.23" height="37.23"/><rect class="cls-1" x="148.93" y="223.39" width="37.23" height="37.23"/><rect class="cls-1" x="186.16" y="223.39" width="37.23" height="37.23"/><rect class="cls-3" x="223.39" y="223.39" width="37.23" height="37.23"/><rect class="cls-1" x="260.62" y="223.39" width="37.23" height="37.23"/><rect class="cls-1" x="297.86" y="223.39" width="37.23" height="37.23"/><rect class="cls-1" x="335.09" y="223.39" width="37.23" height="37.23"/><rect class="cls-3" x="372.32" y="223.39" width="37.23" height="37.23"/><rect class="cls-1" x="409.55" y="223.39" width="37.23" height="37.23"/><rect class="cls-2" x="446.78" y="223.39" width="37.23" height="37.23"/><rect class="cls-2" x="484.02" y="223.39" width="37.23" height="37.23"/><rect class="cls-1" x="148.93" width="37.23" height="37.23"/><rect class="cls-1" x="260.62" width="37.23" height="37.23"/><rect class="cls-1" x="297.86" width="37.23" height="37.23"/><rect class="cls-1" x="335.09" width="37.23" height="37.23"/><rect class="cls-1" x="446.78" width="37.23" height="37.23"/><rect class="cls-1" x="111.7" y="37.23" width="37.23" height="37.23"/><rect class="cls-1" x="148.93" y="37.23" width="37.23" height="37.23"/><rect class="cls-1" x="297.86" y="37.23" width="37.23" height="37.23"/><rect class="cls-1" x="446.78" y="37.23" width="37.23" height="37.23"/><rect class="cls-1" x="484.02" y="37.23" width="37.23" height="37.23"/><rect class="cls-1" x="111.7" y="260.62" width="37.23" height="37.23"/><rect class="cls-1" x="148.93" y="260.62" width="37.23" height="37.23"/><rect class="cls-1" x="186.16" y="260.62" width="37.23" height="37.23"/><rect class="cls-1" x="223.39" y="260.62" width="37.23" height="37.23"/><rect class="cls-1" x="260.62" y="260.62" width="37.23" height="37.23"/><rect class="cls-1" x="297.86" y="260.62" width="37.23" height="37.23"/><rect class="cls-1" x="335.09" y="260.62" width="37.23" height="37.23"/><rect class="cls-1" x="372.32" y="260.62" width="37.23" height="37.23"/><rect class="cls-1" x="409.55" y="260.62" width="37.23" height="37.23"/><rect class="cls-2" x="446.78" y="260.62" width="37.23" height="37.23"/><rect class="cls-2" x="484.02" y="260.62" width="37.23" height="37.23"/><rect class="cls-1" x="595.71" y="260.62" width="37.23" height="37.23"/><rect class="cls-1" x="37.23" y="297.85" width="37.23" height="37.23"/><rect class="cls-1" x="74.46" y="297.85" width="37.23" height="37.23"/><rect class="cls-1" x="111.7" y="297.85" width="37.23" height="37.23"/><rect class="cls-3" x="148.93" y="297.85" width="37.23" height="37.23"/><rect class="cls-1" x="186.16" y="297.85" width="37.23" height="37.23"/><rect class="cls-1" x="223.39" y="297.85" width="37.23" height="37.23"/><rect class="cls-1" x="260.62" y="297.85" width="37.23" height="37.23"/><rect class="cls-3" x="297.86" y="297.85" width="37.23" height="37.23"/><rect class="cls-1" x="335.09" y="297.85" width="37.23" height="37.23"/><rect class="cls-1" x="372.32" y="297.85" width="37.23" height="37.23"/><rect class="cls-1" x="409.55" y="297.85" width="37.23" height="37.23"/><rect class="cls-3" x="446.78" y="297.85" width="37.23" height="37.23"/><rect class="cls-2" x="484.02" y="297.85" width="37.23" height="37.23"/><rect class="cls-1" x="521.25" y="297.85" width="37.23" height="37.23"/><rect class="cls-1" x="558.48" y="297.85" width="37.23" height="37.23"/><rect class="cls-1" x="595.71" y="297.85" width="37.23" height="37.23"/><rect class="cls-1" x="111.7" y="335.09" width="37.23" height="37.23"/><rect class="cls-1" x="148.93" y="335.09" width="37.23" height="37.23"/><rect class="cls-1" x="186.16" y="335.09" width="37.23" height="37.23"/><rect class="cls-1" x="223.39" y="335.09" width="37.23" height="37.23"/><rect class="cls-1" x="260.62" y="335.09" width="37.23" height="37.23"/><rect class="cls-1" x="297.86" y="335.09" width="37.23" height="37.23"/><rect class="cls-1" x="335.09" y="335.09" width="37.23" height="37.23"/><rect class="cls-1" x="372.32" y="335.09" width="37.23" height="37.23"/><rect class="cls-1" x="409.55" y="335.09" width="37.23" height="37.23"/><rect class="cls-2" x="446.78" y="335.09" width="37.23" height="37.23"/><rect class="cls-2" x="484.02" y="335.09" width="37.23" height="37.23"/><rect class="cls-1" x="595.71" y="335.09" width="37.23" height="37.23"/><rect class="cls-1" y="260.62" width="37.23" height="37.23"/><rect class="cls-1" y="297.85" width="37.23" height="37.23"/><rect class="cls-1" y="335.09" width="37.23" height="37.23"/><rect class="cls-1" x="111.7" y="372.32" width="37.23" height="37.23"/><rect class="cls-1" x="148.93" y="372.32" width="37.23" height="37.23"/><rect class="cls-1" x="186.16" y="372.32" width="37.23" height="37.23"/><rect class="cls-3" x="223.39" y="372.32" width="37.23" height="37.23"/><rect class="cls-1" x="260.62" y="372.32" width="37.23" height="37.23"/><rect class="cls-1" x="297.86" y="372.32" width="37.23" height="37.23"/><rect class="cls-1" x="335.09" y="372.32" width="37.23" height="37.23"/><rect class="cls-3" x="372.32" y="372.32" width="37.23" height="37.23"/><rect class="cls-1" x="409.55" y="372.32" width="37.23" height="37.23"/><rect class="cls-2" x="446.78" y="372.32" width="37.23" height="37.23"/><rect class="cls-2" x="484.02" y="372.32" width="37.23" height="37.23"/><rect class="cls-1" y="446.78" width="37.23" height="37.23"/><rect class="cls-1" x="74.46" y="409.55" width="37.23" height="37.23"/><rect class="cls-1" x="148.93" y="409.55" width="37.23" height="37.23"/><rect class="cls-1" x="186.16" y="409.55" width="37.23" height="37.23"/><rect class="cls-1" x="223.39" y="409.55" width="37.23" height="37.23"/><rect class="cls-1" x="260.62" y="409.55" width="37.23" height="37.23"/><rect class="cls-1" x="297.86" y="409.55" width="37.23" height="37.23"/><rect class="cls-1" x="335.09" y="409.55" width="37.23" height="37.23"/><rect class="cls-1" x="372.32" y="409.55" width="37.23" height="37.23"/><rect class="cls-2" x="409.55" y="409.55" width="37.23" height="37.23"/><rect class="cls-2" x="446.78" y="409.55" width="37.23" height="37.23"/><rect class="cls-1" x="521.25" y="409.55" width="37.23" height="37.23"/><rect class="cls-1" x="37.23" y="446.78" width="37.23" height="37.23"/><rect class="cls-1" x="186.16" y="446.78" width="37.23" height="37.23"/><rect class="cls-1" x="223.39" y="446.78" width="37.23" height="37.23"/><rect class="cls-1" x="260.62" y="446.78" width="37.23" height="37.23"/><rect class="cls-3" x="297.86" y="446.78" width="37.23" height="37.23"/><rect class="cls-1" x="335.09" y="446.78" width="37.23" height="37.23"/><rect class="cls-2" x="372.32" y="446.78" width="37.23" height="37.23"/><rect class="cls-2" x="409.55" y="446.78" width="37.23" height="37.23"/><rect class="cls-1" x="558.48" y="446.78" width="37.23" height="37.23"/><rect class="cls-1" x="595.71" y="446.78" width="37.23" height="37.23"/><rect class="cls-1" x="37.23" y="484.01" width="37.23" height="37.23"/><rect class="cls-1" x="223.39" y="484.01" width="37.23" height="37.23"/><rect class="cls-1" x="260.62" y="484.01" width="37.23" height="37.23"/><rect class="cls-1" x="297.86" y="484.01" width="37.23" height="37.23"/><rect class="cls-1" x="335.09" y="484.01" width="37.23" height="37.23"/><rect class="cls-2" x="372.32" y="484.01" width="37.23" height="37.23"/><rect class="cls-1" x="558.48" y="484.01" width="37.23" height="37.23"/><rect class="cls-1" x="186.16" y="521.25" width="37.23" height="37.23"/><rect class="cls-1" x="297.86" y="521.25" width="37.23" height="37.23"/><rect class="cls-1" x="409.55" y="521.25" width="37.23" height="37.23"/><rect class="cls-1" x="111.7" y="558.48" width="37.23" height="37.23"/><rect class="cls-1" x="148.93" y="558.48" width="37.23" height="37.23"/><rect class="cls-1" x="297.86" y="558.48" width="37.23" height="37.23"/><rect class="cls-1" x="446.78" y="558.48" width="37.23" height="37.23"/><rect class="cls-1" x="484.02" y="558.48" width="37.23" height="37.23"/><rect class="cls-1" x="148.93" y="595.71" width="37.23" height="37.23"/><rect class="cls-1" x="260.62" y="595.71" width="37.23" height="37.23"/><rect class="cls-1" x="297.86" y="595.71" width="37.23" height="37.23"/><rect class="cls-1" x="335.09" y="595.71" width="37.23" height="37.23"/><rect class="cls-1" x="446.78" y="595.71" width="37.23" height="37.23"/></svg>